<ttFont>
<head>
    <!-- Most of this table will be recalculated by the compiler -->
    <tableVersion value="1.0"/>
    <fontRevision value="1.004"/>
    <checkSumAdjustment value="0x543dd203"/>
    <magicNumber value="0x5f0f3cf5"/>
    <flags value="00000000 00000011"/>
    <unitsPerEm value="1000"/>
    <created value="Mon Jun 15 05:06:56 2015"/>
    <modified value="Thu Feb 20 21:40:15 2020"/>
    <xMin value="30"/>
    <yMin value="-82"/>
    <xMax value="972"/>
    <yMax value="838"/>
    <macStyle value="00000000 00000000"/>
    <lowestRecPPEM value="3"/>
    <fontDirectionHint value="2"/>
    <indexToLocFormat value="0"/>
    <glyphDataFormat value="0"/>
  </head>
              <CharString index="0">
                77 -106 callsubr
                return
              </CharString>
              <CharString index="1">
                -104 callsubr
                87 return
              </CharString>
              <CharString index="2">
                hlineto
                hintmask 011000000010101000000000
                -62 181 vlineto
                -31 -154 -66 -109 -129 -72 22 17 10 33 4 65 -18 5 -26 9 -14 11 rrcurveto
                -80 -4 -4 -12 -27 hhcurveto
                -113 hlineto
                -33 -5 4 24 hvcurveto
                87 vlineto
                80 19 87 29 62 32 -54 46 rcurveline
                -41 -26 -68 -26 -66 -20 rrcurveto
                98 -65 -240 vlineto
                -68 19 -19 77 vhcurveto
                -107 callgsubr
                18 15 2 7 11 hvcurveto
                14 -11 27 -24 10 -12 87 54 60 66 41 85 rrcurveto
                hintmask 100000000000001010000000
                -92 vlineto
                -55 5 -16 15 -12 vhcurveto
                -12 13 23 -4 18 hhcurveto
                53 hlineto
                18 21 3 6 11 hvcurveto
                14 7 9 13 5 18 5 17 3 52 1 44 -16 5 -20 10 -12 11 rrcurveto
                -48 -2 -37 -2 -16 vhcurveto
                -3 -15 -4 -9 -5 -3 rrcurveto
                -3 -5 -12 -2 -9 hhcurveto
                endchar
              </CharString>
              <CharString index="3">
                vlineto
                -220 vmoveto
                return
              </CharString>
              <CharString index="4">
                189 721 rmoveto
                755 68 -825 -294 hlineto
                -156 -7 -220 -76 -157 vhcurveto
                18 -7 31 -18 14 -11 rrcurveto
                79 164 11 241 164 vvcurveto
                return
              </CharString>
              <CharString index="5">
                104 54 73 69 50 91 rrcurveto
                -117 vlineto
                -45 4 -14 16 -13 vhcurveto
                -13 14 23 -3 22 hhcurveto
                55 hlineto
                18 22 3 7 12 hvcurveto
                15 8 10 12 6 18 6 17 3 50 1 45 -17 6 -24 13 -12 12 1 -46 -2 -40 -2 -15 -3 -11 -6 -7 -5 -4 rrcurveto
                -3 -6 -12 -1 -10 hhcurveto
                endchar
              </CharString>
              <CharString index="6">
                284 -154 rmoveto
                -70 -166 70 vlineto
                -193 vmoveto
                71 166 -71 vlineto
                70 -316 rmoveto
                56 -236 75 230 54 -230 75 227 305 -140 vlineto
                10 22 11 26 11 24 -69 16 rcurveline
                -5 -25 -10 -35 -10 -28 rrcurveto
                -89 -678 64 -104 callgsubr
                return
              </CharString>
              <CharString index="7">
                61 -31 69 75 53 cntrmask 0110111011111000
                cntrmask 1001000110100101
                hintmask 1110110111111101
                949 715 rmoveto
                68 -827 -281 vlineto
                -154 -7 -218 -77 -155 vhcurveto
                18 -7 30 -18 14 -11 rrcurveto
                81 163 10 238 162 vvcurveto
                213 vlineto
                return
              </CharString>
              <CharString index="8">
                rrcurveto
                hintmask 101000000000001000000000
                85 -380 rmoveto
                -9 -7 2 4 -4 hvcurveto
                -5 3 -1 11 19 vvcurveto
                275 -6 4 return
              </CharString>
              <CharString index="9">
                -7 31 -18 13 -11 rrcurveto
                return
              </CharString>
        <CharString name=".notdef" fdSelectIndex="0">
          endchar
        </CharString>
        <CharString name="cid12223" fdSelectIndex="1">
          -67 64 55 56 75 54 74 61 -60 56 71 52 70 56 -46 61 83 68 hstemhm
          122 69 54 64 166 61 61 61 80 -100 callsubr
          hintmask 0110111000110000
          -101 callsubr
          hintmask 0001000100001010
          349 320 rmoveto
          199 -106 callgsubr
          -4 -73 -6 -66 -11 -60 rrcurveto
          hintmask 1001000000000100
          82 -375 rmoveto
          -10 -7 1 4 -5 hvcurveto
          -6 3 -2 6 8 vvcurveto
          281 vlineto
          3 11 rlineto
          144 61 hlineto
          hintmask 0001000100001010
          -100 callgsubr
          11 60 7 66 5 73 rrcurveto
          99 61 -339 -260 -40 -61 177 hlineto
          -41 -161 -80 -107 -154 -69 16 -12 27 -27 9 -11 rrcurveto
          hintmask 1000000000001101
          -102 callsubr
        </CharString>
        <CharString name="cid61789" fdSelectIndex="1">
          -65 59 305 63 87 56 74 63 79 68 hstemhm
          119 70 59 65 157 64 59 63 82 68 -33 69 71 52 cntrmask 1111111110000000
          cntrmask 0000001001010000
          -101 callgsubr
          189 721 rmoveto
          755 68 -825 -294 hlineto
          -157 -7 -219 -81 -157 vhcurveto
          18 -98 callsubr
          85 164 11 240 165 vvcurveto
          281 87 rmoveto
          -77 -157 -107 callsubr
          157 -87 vlineto
          97 -316 rmoveto
          -15 58 -45 88 -46 65 -59 -20 rcurveline
          19 -27 19 -32 16 -31 -49 -18 -49 -17 -45 -15 rrcurveto
          205 221 340 -286 -567 vlineto
          -23 -8 -21 -7 -19 -6 24 -67 rcurveline
          77 30 99 37 96 38 10 -25 9 -24 5 -20 rrcurveto
          151 339 rmoveto
          217 vlineto
          hintmask 0101000000100000
          -105 callgsubr
          -3 -75 -5 -73 -13 -69 rrcurveto
          hintmask 1100000001000000
          81 -368 rmoveto
          -9 -6 1 3 -5 hvcurveto
          -5 4 -2 11 19 vvcurveto
          264 vlineto
          1 3 rlineto
          144 63 hlineto
          hintmask 0101000010100000
          -131 hlineto
          12 69 6 74 4 74 rrcurveto
          92 63 -341 -280 -38 -63 182 hlineto
          -39 -140 -82 -117 -184 -68 15 -13 20 -25 8 -16 rrcurveto
          hintmask 1000000011010000
          127 49 82 73 54 87 rrcurveto
          -92 vlineto
          -56 6 -16 15 -13 vhcurveto
          -12 14 25 -5 20 hhcurveto
          56 hlineto
          17 23 3 6 11 hvcurveto
          15 7 10 12 6 18 rrcurveto
          6 15 3 48 41 vvcurveto
          -16 6 -23 11 -13 12 rrcurveto
          -43 -2 -34 -2 -14 vhcurveto
          -2 -14 -5 -8 -6 -3 rrcurveto
          -3 -5 -12 -1 -10 hhcurveto
          endchar
        </CharString>
        <CharString name="cid62031" fdSelectIndex="1">
          -65 53 -29 60 287 62 -58 51 78 49 78 51 -45 62 82 63 hstemhm
          122 70 48 61 -58 65 165 62 -41 58 53 61 83 63 -43 65 81 48 cntrmask 010111011101010000000000
          cntrmask 101000110010001010000000
          hintmask 010110111101011010000000
          949 716 rmoveto
          63 -827 -297 vlineto
          -153 -7 -214 -77 -152 vhcurveto
          18 -7 31 -19 14 -11 rrcurveto
          80 159 11 236 161 vvcurveto
          234 vlineto
          281 -228 rmoveto
          -172 hlineto
          hintmask 000111000101010000000000
          78 172 vlineto
          -205 vmoveto
          -172 78 172 hlineto
          62 178 rmoveto
          -128 hlineto
          10 22 11 23 10 24 -69 16 rcurveline
          -6 -24 -11 -32 -11 -29 rrcurveto
          -101 -307 295 hlineto
          131 58 rmoveto
          hintmask 000100100000010100000000
          204 103 vlineto
          -3 -75 -4 -68 -9 -61 -99 callsubr
          140 vlineto
          hintmask 000100100000010100000000
          62 -129 vlineto
          9 62 5 67 3 75 rrcurveto
          104 62 -333 -266 -44 -105 callsubr
        </CharString>
        <CharString name="cid62032" fdSelectIndex="1">
          -67 64 55 56 75 54 70 61 -56 56 71 52 70 56 -47 60 85 68 hstemhm
          122 69 54 64 166 61 66 61 75 -100 callsubr
          hintmask 1110111011111101
          -101 callsubr
          520 -55 rmoveto
          -10 -7 1 4 -5 hvcurveto
          -6 3 -2 6 8 vvcurveto
          hintmask 1111010111111101
          281 vlineto
          2 7 rlineto
          148 61 hlineto
          hintmask 1111010111111011
          -103 callgsubr
          11 61 8 67 5 74 rrcurveto
          101 60 -365 -60 -102 callgsubr
          -4 -74 -6 -68 -12 -60 rrcurveto
          -83 167 -61 hlineto
          hintmask 1110110111111101
          -167 -44 vlineto
          hintmask 1111010111111101
          -61 175 vlineto
          -41 -159 -80 -106 -153 -68 16 -12 27 -27 9 -11 -102 callsubr
        </CharString>
        <CharString name="cid62033" fdSelectIndex="1">
          -65 58 304 63 -59 59 88 55 76 63 79 68 hstemhm
          119 70 58 65 158 63 83 58 63 68 -32 68 71 53 cntrmask 1100111111000000
          cntrmask 0011100100101000
          hintmask 1101111111100000
          -103 callsubr
          281 87 rmoveto
          -79 -158 79 vlineto
          hintmask 0011100110000000
          -221 vmoveto
          87 158 -87 vlineto
          98 -316 rmoveto
          -15 59 -44 88 -46 65 -59 -20 rcurveline
          19 -27 18 -32 16 -31 -50 -17 -49 -17 -46 -16 rrcurveto
          204 221 341 -286 -567 vlineto
          -23 -7 -21 -7 -19 -6 26 -67 rcurveline
          78 29 99 39 95 37 11 -26 8 -24 5 -20 rrcurveto
          hintmask 0100100001010000
          168 337 rmoveto
          219 99 vlineto
          -4 -75 -5 -74 -13 -70 rrcurveto
          hintmask 1100000000100000
          81 -367 rmoveto
          -9 -6 1 3 -5 hvcurveto
          -6 4 -1 11 18 vvcurveto
          264 -1 vlineto
          1 3 rlineto
          145 63 hlineto
          hintmask 0100100001010000
          -100 callgsubr
          13 70 6 74 4 75 rrcurveto
          96 63 -371 -63 50 -219 -62 -63 182 hlineto
          -40 -139 -83 -118 -182 -68 15 -13 19 -24 9 -17 rrcurveto
          hintmask 1000000000101000
          127 50 82 74 54 88 rrcurveto
          -94 vlineto
          -56 5 -16 16 -13 vhcurveto
          -12 14 25 -4 20 hhcurveto
          56 hlineto
          17 23 2 6 11 hvcurveto
          15 7 10 12 6 17 6 16 3 48 1 41 -18 5 -23 12 -12 12 rrcurveto
          -44 -2 -33 -2 -15 vhcurveto
          -2 -13 -5 -8 -6 -3 rrcurveto
          -3 -5 -12 -1 -10 hhcurveto
          endchar
        </CharString>
        <CharString name="cid62034" fdSelectIndex="1">
          -65 53 -29 60 287 62 -58 51 78 49 78 51 -43 60 82 63 hstemhm
          122 70 48 61 -58 65 165 62 -41 58 59 59 79 63 -43 66 80 48 cntrmask 010111011101010000000000
          cntrmask 101000110010001010000000
          hintmask 010110111101011010000000
          949 716 rmoveto
          63 -827 -297 vlineto
          -153 -7 -214 -77 -152 vhcurveto
          18 -7 31 -19 14 -11 rrcurveto
          80 159 11 236 161 vvcurveto
          234 vlineto
          281 -228 rmoveto
          -172 hlineto
          hintmask 000111000101010000000000
          78 172 vlineto
          -205 vmoveto
          -172 78 172 hlineto
          62 178 rmoveto
          -128 hlineto
          10 22 11 23 10 24 -69 16 rcurveline
          -6 -24 -11 -32 -11 -29 rrcurveto
          -101 -307 295 hlineto
          135 58 rmoveto
          hintmask 000100100000010100000000
          206 99 vlineto
          -3 -76 -4 -68 -9 -62 -99 callsubr
          141 vlineto
          hintmask 000100100000010100000000
          62 -130 vlineto
          9 62 5 69 4 75 rrcurveto
          100 60 -367 -60 43 -206 -50 -105 callsubr
        </CharString>
      <CharString index="0">
        127 hlineto
        return
      </CharString>
      <CharString index="1">
        110 vlineto
        return
      </CharString>
      <CharString index="2">
        117 hlineto
        return
      </CharString>
      <CharString index="3">
        113 hlineto
        return
      </CharString>
      <CharString index="4">
        -136 hlineto
        return
      </CharString>
      <CharString index="5">
        195 hlineto
        return
      </CharString>
      <CharString index="6">
        hintmask 1111111111000000
        return
      </CharString>
      <CharString index="7">
        -132 hlineto
        return
      </CharString>
</ttFont>
